<svg width="260" height="226" viewBox="0 0 260 226" fill="none" xmlns="http://www.w3.org/2000/svg">
<path d="M171.559 166.78C177.672 166.78 182.312 167.942 185.476 170.264C188.682 172.548 190.286 175.442 190.286 178.944C190.286 181.571 189.581 183.875 188.17 185.854C186.802 187.834 184.727 188.824 181.948 188.824C179.64 188.824 177.908 188.31 176.754 187.282C175.6 186.254 175.022 185.112 175.022 183.855C175.022 182.637 175.492 180.981 176.433 178.887C177.373 176.755 178.122 175.041 178.678 173.747C178.207 172.719 177.16 171.977 175.535 171.521C173.91 171.026 172.222 170.778 170.469 170.778C164.654 170.778 159.63 173.805 155.397 179.858C151.207 185.874 149.112 193.259 149.112 202.016C149.112 207.422 150.459 211.724 153.152 214.922C155.889 218.082 159.566 219.661 164.184 219.661C168.331 219.661 172.008 218.671 175.215 216.691C178.464 214.712 181.564 211.913 184.514 208.297L188.17 210.695C185.22 214.845 181.2 218.444 176.112 221.489C171.067 224.497 165.765 226 160.207 226C152.725 226 146.803 224.059 142.441 220.176C138.123 216.293 135.964 210.772 135.964 203.614C135.964 198.855 136.777 194.306 138.401 189.966C140.069 185.588 142.378 181.705 145.328 178.316C148.278 174.928 151.998 172.167 156.487 170.035C161.019 167.865 166.043 166.78 171.559 166.78Z" fill="#85817D"/>
<path d="M113.453 166.78C116.959 166.78 119.503 167.523 121.085 169.008C122.667 170.493 123.458 172.491 123.458 175.004C123.458 175.689 123.372 176.622 123.201 177.802C123.03 178.982 122.774 180.163 122.432 181.343L115.569 205.613C115.142 207.098 114.757 208.564 114.415 210.011C114.116 211.419 113.966 212.581 113.966 213.494C113.966 215.664 114.501 217.149 115.569 217.948C116.681 218.748 118.456 219.147 120.893 219.147C121.705 219.147 122.86 219.053 124.356 218.862C125.895 218.672 127.071 218.443 127.884 218.177L126.921 221.831C122.987 223.24 119.845 224.211 117.493 224.744C115.142 225.315 113.132 225.601 111.465 225.601C108.044 225.601 105.479 224.82 103.769 223.259C102.059 221.66 101.203 219.699 101.203 217.377C101.203 216.501 101.289 215.587 101.46 214.636C101.631 213.684 101.909 212.485 102.294 211.038L109.092 186.768C109.434 185.435 109.754 184.008 110.054 182.485C110.396 180.963 110.567 179.668 110.567 178.602C110.567 176.47 110.161 175.061 109.349 174.376C108.579 173.653 106.975 173.291 104.538 173.291C103.598 173.291 102.336 173.424 100.755 173.69C99.2158 173.957 98.0399 174.186 97.2275 174.376L98.1895 170.721C101.524 169.388 104.517 168.398 107.168 167.751C109.819 167.104 111.914 166.78 113.453 166.78Z" fill="#85817D"/>
<path d="M229.472 136.856L213.823 196.305H214.08C218.911 191.66 223.294 187.643 227.228 184.255C231.204 180.829 235.352 177.345 239.67 173.805C242.748 171.292 245.185 169.579 246.98 168.665C248.776 167.713 250.701 167.237 252.753 167.237C254.933 167.237 256.686 167.79 258.012 168.894C259.337 169.96 260 171.426 260 173.291C260 174.966 259.251 176.527 257.755 177.974C256.301 179.382 254.484 180.086 252.304 180.086C250.893 180.086 249.503 179.915 248.135 179.572C246.767 179.23 245.27 178.715 243.646 178.03C241.294 179.21 238.857 180.676 236.334 182.428C233.854 184.141 231.14 186.235 228.189 188.71C230.626 194.344 232.679 198.97 234.347 202.587C236.057 206.165 237.51 209.097 238.707 211.381C240.246 214.236 241.936 216.273 243.774 217.491C245.656 218.671 247.708 219.262 249.931 219.262C250.957 219.262 252.368 219.129 254.164 218.862C255.96 218.558 257.35 218.253 258.333 217.948L257.37 221.717C253.394 223.163 250.273 224.135 248.007 224.63C245.741 225.125 243.453 225.372 241.145 225.372C238.408 225.372 236.057 224.706 234.09 223.373C232.166 222.002 230.305 219.547 228.51 216.007C226.757 212.618 225.196 209.287 223.828 206.013C222.46 202.701 221.113 199.579 219.788 196.647L212.284 202.358L206.769 224.401H194.84L213.888 150.905C214.187 149.725 214.379 148.906 214.465 148.449C214.593 147.992 214.657 147.421 214.657 146.736C214.657 145.366 214.401 144.318 213.888 143.595C213.375 142.833 212.648 142.263 211.707 141.882C210.809 141.539 209.676 141.311 208.308 141.196C206.939 141.082 205.55 140.949 204.139 140.797L205.037 137.313L228.831 136L229.472 136.856Z" fill="#85817D"/>
<path d="M57.7842 147.136C56.5871 147.174 55.048 147.345 53.167 147.649C51.2857 147.954 49.8742 148.24 48.9336 148.507C47.3519 148.964 46.1758 149.744 45.4062 150.848C44.6367 151.914 44.0813 153.056 43.7393 154.274L36.2998 183.113H37.582C43.6962 179.268 49.7249 175.061 55.668 170.492C61.6111 165.924 66.464 161.926 70.2266 158.5C72.5354 156.406 74.2882 154.655 75.4854 153.246C76.7251 151.8 77.3455 150.62 77.3457 149.706C77.3457 149.021 76.5971 148.449 75.1006 147.992C73.6469 147.535 71.5092 147.25 68.6875 147.136L69.6494 143.367H103.769L102.807 147.136C102.592 147.136 101.78 147.212 100.37 147.364C98.9592 147.478 97.5694 147.669 96.2012 147.936C94.4909 148.278 92.823 148.754 91.1982 149.363C89.6164 149.934 88.1198 150.772 86.709 151.876C81.108 156.33 75.0791 161.127 68.623 166.267C62.167 171.368 56.1173 175.956 50.4736 180.029C54.2789 185.321 57.9345 190.556 61.4404 195.733C64.9892 200.911 68.4099 206.013 71.7021 211.038C72.8993 212.865 74.2241 214.484 75.6777 215.893C77.1741 217.301 78.6065 218.348 79.9746 219.033C80.9152 219.528 82.241 219.909 83.9512 220.176C85.6614 220.442 87.0512 220.594 88.1201 220.632L87.0303 224.401H63.877C60.4565 217.815 56.6944 211.324 52.5898 204.928C48.4853 198.532 43.9953 192.193 39.1211 185.911H35.5938L28.4756 213.266C28.3901 213.57 28.326 213.894 28.2832 214.236C28.2405 214.541 28.2188 214.864 28.2188 215.207C28.2188 216.121 28.3687 216.864 28.668 217.435C28.9674 218.005 29.6512 218.538 30.7197 219.033C31.2756 219.3 32.4947 219.623 34.376 220.004C36.2996 220.385 37.753 220.594 38.7363 220.632L37.7744 224.401H0L0.961914 220.632C2.03077 220.556 3.50571 220.441 5.38672 220.289C7.26777 220.137 8.63607 219.909 9.49121 219.604C11.0304 219.071 12.1855 218.329 12.9551 217.377C13.7673 216.387 14.3228 215.226 14.6221 213.894L29.9502 154.846C30.0357 154.503 30.0998 154.16 30.1426 153.817C30.1853 153.475 30.207 153.132 30.207 152.789C30.207 151.952 30.0146 151.228 29.6299 150.619C29.2451 150.01 28.6246 149.515 27.7695 149.135C26.9999 148.754 25.8241 148.373 24.2422 147.992C22.7032 147.573 21.2923 147.288 20.0098 147.136L20.9717 143.367H58.7471L57.7842 147.136Z" fill="#85817D"/>
<path d="M124.164 137.885C126.601 137.885 128.589 138.627 130.128 140.111C131.667 141.558 132.437 143.253 132.437 145.194C132.436 147.364 131.645 149.268 130.063 150.905C128.482 152.504 126.515 153.304 124.164 153.304C121.984 153.304 120.101 152.542 118.52 151.02C116.938 149.459 116.146 147.688 116.146 145.708C116.147 143.614 116.938 141.786 118.52 140.226C120.102 138.665 121.984 137.885 124.164 137.885Z" fill="#85817D"/>
<path d="M48.4736 5.16406C52.858 5.16406 57.2049 5.8075 61.5137 7.09375C65.8221 8.34211 68.9972 9.55191 71.0381 10.7246L75.29 7.32031H80.2227L74.3262 34.7852H69.4502C68.9588 31.5697 68.2408 28.5432 67.2959 25.7061C66.3888 22.8688 65.1233 20.3147 63.498 18.0449C61.9107 15.8509 59.9259 14.1114 57.5449 12.8252C55.2017 11.5012 52.3669 10.8389 49.041 10.8389C44.4299 10.8389 40.5739 12.1248 37.4746 14.6973C34.4132 17.2698 32.8828 20.5048 32.8828 24.4014C32.8829 27.1251 33.8092 29.508 35.6611 31.5508C37.5131 33.5936 40.442 35.3716 44.4482 36.8848C46.7916 37.7549 49.2483 38.6636 51.8184 39.6094C54.3884 40.5173 56.8452 41.4627 59.1885 42.4463C63.5727 44.2621 67.0312 46.7401 69.5635 49.8799C72.0957 52.9819 73.3622 56.6706 73.3623 60.9453C73.3623 64.9932 72.436 68.7955 70.584 72.3516C68.732 75.9077 66.1434 78.9724 62.8174 81.5449C59.3023 84.2688 55.2014 86.3683 50.5146 87.8438C45.8279 89.2813 40.6687 90 35.0371 90C30.5772 90 26.0794 89.4516 21.5439 88.3545C17.0462 87.2574 13.096 85.7626 9.69434 83.8711L4.81934 87.8438H0L6.00977 58.7324H10.8857C11.3393 61.5697 12.1704 64.5207 13.3799 67.585C14.5894 70.6114 16.1583 73.3168 18.0859 75.7002C19.9757 78.159 22.376 80.2015 25.2861 81.8281C28.1963 83.4548 31.522 84.2685 35.2637 84.2686C40.7441 84.2686 45.1287 82.9441 48.417 80.2959C51.7051 77.6099 53.3496 74.0917 53.3496 69.7412C53.3495 66.9418 52.4044 64.4827 50.5146 62.3643C48.6626 60.2458 45.6575 58.4302 41.5 56.917C38.8544 55.9713 36.2844 55.0634 33.79 54.1934C31.3333 53.2854 28.9897 52.3579 26.7598 51.4121C22.3376 49.5584 19.0112 46.9292 16.7812 43.5244C14.5514 40.0819 13.4365 36.4309 13.4365 32.5723C13.4366 29.0164 14.2489 25.6117 15.874 22.3584C17.4992 19.0672 19.8429 16.135 22.9043 13.5625C25.8902 11.0278 29.5756 9.00348 33.96 7.49023C38.3821 5.9392 43.22 5.16406 48.4736 5.16406Z" fill="#85817D"/>
<path fill-rule="evenodd" clip-rule="evenodd" d="M239.25 30.2461C246.015 30.2461 251.156 31.3241 254.671 33.4805C258.224 35.6368 260 38.8719 260 43.1846C260 47.3079 258.469 50.864 255.408 53.8525C252.347 56.8034 248.188 58.998 242.935 60.4355C238.777 61.6839 235.224 62.5729 232.276 63.1025C229.366 63.6321 225.794 64.1232 221.562 64.5771C221.637 66.2417 221.863 68.1147 222.241 70.1953C222.619 72.2759 223.187 74.0539 223.942 75.5293C224.849 77.2317 226.135 78.5938 227.798 79.6152C229.461 80.5988 231.577 81.0908 234.147 81.0908C238.607 81.0908 242.387 80.2395 245.486 78.5371C248.623 76.7969 251.61 74.0538 254.444 70.3086L258.583 73.7705C255.181 78.6128 250.816 82.4903 245.486 85.4033C240.195 88.2784 234.62 89.7158 228.762 89.7158C224.226 89.7158 220.238 89.0922 216.799 87.8438C213.397 86.6332 210.582 84.9305 208.352 82.7363C206.159 80.5421 204.515 77.9882 203.419 75.0752C202.323 72.1623 201.775 68.9468 201.775 65.4287C201.775 60.9647 202.607 56.6328 204.27 52.4336C205.933 48.2346 208.408 44.4518 211.696 41.085C214.796 37.8693 218.727 35.2589 223.489 33.2539C228.252 31.2489 233.505 30.2461 239.25 30.2461ZM234.941 34.7852C232.031 34.7852 229.272 37.169 226.664 41.9355C224.094 46.6644 222.45 52.6612 221.731 59.9248C223.961 59.66 226.172 59.3194 228.364 58.9033C230.556 58.4872 232.295 57.9951 233.58 57.4277C236.415 56.1794 238.456 54.5715 239.703 52.6045C240.95 50.6374 241.574 48.0267 241.574 44.7734C241.574 41.5578 240.988 39.0979 239.816 37.3955C238.645 35.6557 237.02 34.7852 234.941 34.7852Z" fill="#85817D"/>
<path fill-rule="evenodd" clip-rule="evenodd" d="M199.62 0.908203L184.37 66.9043C184.106 68.0013 183.784 69.4577 183.406 71.2734C183.066 73.0515 182.896 74.3948 182.896 75.3027C182.896 77.459 183.369 78.9529 184.313 79.7852C185.296 80.5796 186.997 80.9775 189.416 80.9775C190.474 80.9775 191.74 80.7695 193.214 80.3535C194.725 79.9375 195.784 79.5968 196.389 79.332L195.142 84.4385C191.4 85.9139 188.414 87.0493 186.184 87.8438C183.954 88.6003 181.365 88.9785 178.417 88.9785C174.524 88.9785 171.406 88.2221 169.062 86.709C166.757 85.1579 165.15 83.1712 164.243 80.75H163.79C162.467 81.8849 161.201 82.9253 159.991 83.8711C158.782 84.8168 157.232 85.7632 155.343 86.709C153.566 87.6169 151.827 88.3168 150.126 88.8086C148.463 89.3381 146.536 89.6025 144.344 89.6025C137.767 89.6025 132.815 87.6732 129.489 83.8145C126.163 79.9179 124.501 74.6027 124.501 67.8691C124.501 62.6864 125.408 57.8248 127.222 53.2852C129.036 48.7455 131.493 44.7541 134.592 41.3115C137.653 37.9068 141.282 35.2211 145.478 33.2539C149.673 31.2489 154.076 30.2461 158.688 30.2461C162.165 30.2461 165.075 30.6243 167.418 31.3809C169.761 32.0996 171.708 33.0648 173.258 34.2754L177.453 15.832C177.566 15.3025 177.661 14.7351 177.736 14.1299C177.85 13.4868 177.906 12.976 177.906 12.5977C177.906 11.3493 177.585 10.29 176.942 9.41992C176.3 8.54993 175.412 7.86871 174.278 7.37695C173.22 6.88515 172.01 6.52581 170.649 6.29883C169.289 6.07187 167.796 5.86394 166.171 5.6748L167.191 1.47559L198.997 0L199.62 0.908203ZM162.146 35.5801C159.727 35.5801 157.459 36.4881 155.343 38.3037C153.264 40.0818 151.411 42.5219 149.786 45.624C148.274 48.4992 147.065 51.9233 146.158 55.8955C145.251 59.8299 144.797 63.8965 144.797 68.0957C144.797 69.9494 144.93 71.6709 145.194 73.2598C145.497 74.8486 145.969 76.192 146.611 77.2891C147.292 78.4617 148.199 79.3696 149.333 80.0127C150.505 80.6557 151.96 80.9775 153.698 80.9775C155.475 80.9775 157.232 80.4667 158.971 79.4453C160.747 78.386 162.335 77.0992 163.733 75.5859L170.934 44.4326C170.934 43.4868 170.801 42.5217 170.536 41.5381C170.309 40.5169 169.837 39.5523 169.119 38.6445C168.401 37.6988 167.512 36.9613 166.454 36.4316C165.396 35.8642 163.96 35.5801 162.146 35.5801Z" fill="#85817D"/>
<path d="M98.4209 30.2461C102.918 30.2461 106.377 31.3431 108.796 33.5371C111.253 35.6934 112.481 38.5118 112.481 41.9922C112.481 42.711 112.387 43.979 112.198 45.7949C112.047 47.6106 111.745 49.275 111.291 50.7881L109.491 57.1797C115.231 57.1319 119.642 55.8325 121.773 54.7764C120.307 58.2662 116.055 65.2461 110.777 65.2461C109.479 65.246 108.438 64.8384 107.533 64.1338L106.642 67.3018C106.264 68.6257 105.923 70.1387 105.621 71.8408C105.319 73.5432 105.168 74.8301 105.168 75.7002C105.168 77.894 105.659 79.3881 106.642 80.1826C107.624 80.977 109.325 81.375 111.744 81.375C112.878 81.375 114.163 81.185 115.6 80.8066C117.036 80.3905 118.075 80.0312 118.718 79.7285L117.471 84.8359C113.729 86.3113 110.743 87.4279 108.513 88.1846C106.283 88.9789 103.694 89.3759 100.746 89.376C96.2106 89.376 92.6759 88.2791 90.1436 86.085C87.649 83.8529 86.4023 81.0337 86.4023 77.6289C86.4024 76.305 86.4966 74.9623 86.6855 73.6006C86.8745 72.2009 87.1771 70.6307 87.5928 68.8906L91.8604 53.6768C81.637 50.9166 75.3743 53.1403 73.3936 54.7764C77.4108 50.5263 86.5645 43.5607 93.4824 46.6406C93.637 45.6666 93.7158 44.7605 93.7158 43.9219C93.7158 41.8033 93.2814 40.3274 92.4121 39.4951C91.5428 38.6629 89.8794 38.2471 87.4229 38.2471C86.2134 38.2471 84.9657 38.4361 83.6807 38.8145C82.4335 39.1927 81.3563 39.5521 80.4492 39.8926L81.6963 34.7852C84.7578 33.5367 87.6875 32.4775 90.4844 31.6074C93.281 30.6996 95.9266 30.2461 98.4209 30.2461Z" fill="#85817D"/>
<path d="M108.796 0C111.857 0 114.466 1.02158 116.62 3.06445C118.812 5.10732 119.908 7.56627 119.908 10.4414C119.908 13.3165 118.812 15.7755 116.62 17.8184C114.466 19.8234 111.857 20.8262 108.796 20.8262C105.735 20.8261 103.108 19.8233 100.916 17.8184C98.7238 15.7755 97.6279 13.3165 97.6279 10.4414C97.6279 7.56625 98.7238 5.10733 100.916 3.06445C103.108 1.02169 105.735 9.59644e-05 108.796 0Z" fill="#85817D"/>
</svg>
